<svg xmlns="http://www.w3.org/2000/svg" width="197.334" height="56.913" viewBox="0 0 197.334 56.913">
  <g id="Group_52" data-name="Group 52" transform="translate(-572 -44)">
    <g id="Group_45" data-name="Group 45" transform="translate(-5740 334)">
      <path id="Path_1035" data-name="Path 1035" d="M-3533.035-1950.389a5.129,5.129,0,0,1-2.167-.458c-6.217-2.874-10.743-6.264-14.245-10.667a18.575,18.575,0,0,1-4.175-12.183c.053-5.511.066-11.15.037-17.225h-.019l-.009-3.866v-6.519l20.533-6,20.657,6.012-.007,10.369h-.008c0,.87,0,1.734.008,2.582v.493c0,1.05.007,2.094.007,3.138s-.007,2.093-.015,3.116l0,.382c-.02,2.529-.039,5.143.042,7.664a17.841,17.841,0,0,1-4.151,12.069c-3.464,4.362-7.939,7.72-14.083,10.57A5.842,5.842,0,0,1-3533.035-1950.389Z" transform="translate(9865.624 1717.302)" fill="#edcc85" fill-rule="evenodd"/>
      <path id="Path_1036" data-name="Path 1036" d="M-3531.923-1949.691a4.663,4.663,0,0,1-1.971-.415c-6.147-2.842-10.616-6.187-14.069-10.529a18.076,18.076,0,0,1-4.064-11.856c.056-5.662.068-11.469.034-17.734h-.017l-.007-3.363v-6.136l20.048-5.854,20.174,5.871-.007,9.483h-.01c0,1.041,0,2.075.008,3.088v.081q.005,1.78.008,3.549c0,1.16-.009,2.331-.018,3.463-.019,2.548-.04,5.175.042,7.715a17.346,17.346,0,0,1-4.041,11.733c-3.415,4.3-7.834,7.613-13.906,10.429A5.358,5.358,0,0,1-3531.923-1949.691Z" transform="translate(9864.511 1716.1)" fill="#a38b55" fill-rule="evenodd"/>
      <path id="Path_1037" data-name="Path 1037" d="M-3530.9-1949.044a4.242,4.242,0,0,1-1.791-.375c-6.081-2.812-10.5-6.116-13.905-10.4a17.627,17.627,0,0,1-3.962-11.556c.058-5.8.068-11.766.032-18.2h-.016l-.007-2.9v-5.783l19.6-5.723,19.726,5.741-.005,8.666h-.01c0,1.2,0,2.393.008,3.558v.076q.005,1.774.008,3.548c0,1.157-.009,2.328-.018,3.461-.019,2.553-.04,5.181.043,7.733a16.881,16.881,0,0,1-3.94,11.421c-3.368,4.242-7.735,7.515-13.743,10.3A4.929,4.929,0,0,1-3530.9-1949.044Z" transform="translate(9863.484 1714.989)" fill="#c0a660" fill-rule="evenodd"/>
      <path id="Path_1038" data-name="Path 1038" d="M-3527.685-1947.028a2.9,2.9,0,0,1-1.225-.25c-5.876-2.717-10.132-5.894-13.4-10a16.182,16.182,0,0,1-3.642-10.615c.061-6.226.069-12.675.022-19.67h-.011l0-1.452v-4.676l18.207-5.318,18.331,5.334,0,6.112h-.009c0,1.68,0,3.37.006,5.015q0,1.809.007,3.62c0,1.152-.009,2.321-.018,3.45-.02,2.56-.039,5.207.042,7.792a15.455,15.455,0,0,1-3.62,10.447c-3.226,4.063-7.432,7.209-13.237,9.9A3.547,3.547,0,0,1-3527.685-1947.028Z" transform="translate(9860.273 1711.521)" fill="#fff" fill-rule="evenodd"/>
      <path id="Path_1039" data-name="Path 1039" d="M-3525.12-1945.418a1.853,1.853,0,0,1-.771-.15c-5.711-2.64-9.838-5.715-12.987-9.676a15.034,15.034,0,0,1-3.386-9.862c.065-6.574.07-13.4.014-20.844h0l0-.291v-3.8l17.092-4.991,17.213,5.01,0,4.069h0c-.012,2.062,0,4.155,0,6.179,0,1.206.009,2.411.009,3.617,0,1.148-.009,2.313-.019,3.441-.019,2.573-.039,5.231.044,7.84a14.313,14.313,0,0,1-3.365,9.668c-3.113,3.918-7.192,6.964-12.831,9.579A2.453,2.453,0,0,1-3525.12-1945.418Z" transform="translate(9857.708 1708.748)" fill="#a38b55" fill-rule="evenodd"/>
      <path id="Path_1040" data-name="Path 1040" d="M-3507.563-1964.166c-.12-3.76-.026-7.527-.026-11.291,0-3.362-.029-6.725-.007-10.086h0l0-3.559-16.933-4.927-16.813,4.909v3.576h0q.079,10.568-.014,21.137a14.781,14.781,0,0,0,3.323,9.674,34.22,34.22,0,0,0,12.886,9.6,2.044,2.044,0,0,0,1.544-.058,33.9,33.9,0,0,0,12.729-9.5A14.031,14.031,0,0,0-3507.563-1964.166Z" transform="translate(9857.068 1708.052)" fill="#002d62" fill-rule="evenodd"/>
      <g id="Group_24" data-name="Group 24" transform="translate(6320.529 -282.522)">
        <g id="Group_19" data-name="Group 19" transform="translate(0 9.45)">
          <path id="Path_1041" data-name="Path 1041" d="M-3525.481-1951.445a5.643,5.643,0,0,0,.906,1.267c.467.452.958.872,1.435,1.31.348.321.709.629,1.035.98a3.547,3.547,0,0,1,.906,2.5c0,2.894-.009,5.788,0,8.684a13.273,13.273,0,0,0,2.109,7.3,8.72,8.72,0,0,0,3.332,3.1,4.921,4.921,0,0,0,5.128-.23,9.819,9.819,0,0,0,3.823-4.512,14.07,14.07,0,0,0,1.123-4.115,13.318,13.318,0,0,0,.088-1.436c.008-2.86.019-5.72,0-8.581a3.912,3.912,0,0,1,1.293-3.114c.373-.335.755-.657,1.137-.979a7.164,7.164,0,0,0,1.847-2.174c.006.064.012.1.012.134,0,4.619.012,9.24-.008,13.859a11.7,11.7,0,0,1-.646,3.62,12.726,12.726,0,0,1-2.387,4.3,11.8,11.8,0,0,1-6.8,4.081c-.414.083-.835.122-1.254.181a.622.622,0,0,0-.083.026h-1.808a.486.486,0,0,0-.083-.026,10.779,10.779,0,0,1-2.349-.452,12.106,12.106,0,0,1-7.027-5.706,12.851,12.851,0,0,1-1.651-5.129c-.022-.2-.048-.408-.072-.612Z" transform="translate(3525.481 1951.445)" fill="#fff" fill-rule="evenodd"/>
        </g>
        <g id="Group_23" data-name="Group 23" transform="translate(7.895)">
          <g id="Group_22" data-name="Group 22">
            <g id="Group_21" data-name="Group 21">
              <g id="Group_20" data-name="Group 20">
                <path id="Path_1042" data-name="Path 1042" d="M-3497.882-1961.641c-5.039-6.41,3.952-15.166,2.6-20.986l1.144,2.391C-3492.838-1976.807-3499.906-1966.272-3497.882-1961.641Z" transform="translate(3499.43 1982.627)" fill="#c0a660"/>
                <path id="Path_1043" data-name="Path 1043" d="M-3491.264-1950.437c-6.568-4.117,2.559-13.61,1.651-20.316l1.083,2.262C-3487.148-1964.043-3495.228-1954.15-3491.264-1950.437Z" transform="translate(3495.408 1974.352)" fill="#c0a660"/>
                <path id="Path_1044" data-name="Path 1044" d="M-3483.09-1960.458a5.276,5.276,0,0,1,.1,2.985c.053,1.479-3.413,8.328-3.522,11.028-.2,4.872,3.348,4.08,3.348,4.08-5.232-1.844.814-8.393,1.328-14.242A8.911,8.911,0,0,0-3483.09-1960.458Z" transform="translate(3490.432 1967.291)" fill="#c0a660"/>
              </g>
            </g>
          </g>
        </g>
      </g>
      <g id="Group_25" data-name="Group 25" transform="translate(6327.557 -244.209)">
        <path id="Path_1045" data-name="Path 1045" d="M-3501.066-1854.355l-.123.359h-1.1a.212.212,0,0,0,.107-.153,1.231,1.231,0,0,0,.01-.2v-1.1a1.21,1.21,0,0,0-.01-.2.215.215,0,0,0-.107-.153h.878a.288.288,0,0,0,.1-.016v.321a.321.321,0,0,0-.148-.091.63.63,0,0,0-.175-.018,1.736,1.736,0,0,0-.273.018v.514h.353a.2.2,0,0,0,.09-.019v.291a.247.247,0,0,0-.207-.073h-.236v.655a2.062,2.062,0,0,0,.326.028A.808.808,0,0,0-3501.066-1854.355Z" transform="translate(3502.29 1855.939)" fill="#c0a660"/>
        <path id="Path_1046" data-name="Path 1046" d="M-3496.6-1854.589a.517.517,0,0,1-.162.372.747.747,0,0,1-.554.2,1.318,1.318,0,0,1-.466-.086l-.08-.341a.9.9,0,0,0,.581.219.473.473,0,0,0,.281-.08.239.239,0,0,0,.114-.2.256.256,0,0,0-.087-.2,1.648,1.648,0,0,0-.34-.192,1.525,1.525,0,0,1-.364-.219.419.419,0,0,1-.137-.318.42.42,0,0,1,.178-.354.789.789,0,0,1,.48-.132,1.439,1.439,0,0,1,.4.059v.313a.57.57,0,0,0-.418-.181.407.407,0,0,0-.252.072.222.222,0,0,0-.1.186.22.22,0,0,0,.076.17,1.486,1.486,0,0,0,.314.183,2.048,2.048,0,0,1,.385.222A.371.371,0,0,1-3496.6-1854.589Z" transform="translate(3499.205 1856.004)" fill="#c0a660"/>
        <path id="Path_1047" data-name="Path 1047" d="M-3492.112-1855.831l-.085.328a.159.159,0,0,0-.1-.091.474.474,0,0,0-.143-.014l-.066,0c-.031,0-.069,0-.119,0h-.041v1.274a.547.547,0,0,0,.027.2.3.3,0,0,0,.111.124h-.522a.214.214,0,0,0,.108-.153,1.3,1.3,0,0,0,.01-.2v-1.245a2,2,0,0,0-.212-.008.779.779,0,0,0-.18.016.463.463,0,0,0-.162.089l.1-.328a.407.407,0,0,0,.135.019h.994c.022,0,.056,0,.1-.005Z" transform="translate(3496.159 1855.945)" fill="#c0a660"/>
        <path id="Path_1048" data-name="Path 1048" d="M-3488.592-1850.676a.174.174,0,0,1-.047.123.158.158,0,0,1-.115.048.161.161,0,0,1-.118-.048.174.174,0,0,1-.047-.123.164.164,0,0,1,.048-.12.162.162,0,0,1,.118-.05.148.148,0,0,1,.113.051A.169.169,0,0,1-3488.592-1850.676Z" transform="translate(3492.971 1852.471)" fill="#c0a660"/>
        <path id="Path_1049" data-name="Path 1049" d="M-3486.009-1854.264h-.552a.316.316,0,0,0,.138-.151.757.757,0,0,0,.02-.206v-1.094h-.311a1.177,1.177,0,0,0,.329-.2,1.086,1.086,0,0,0,.247-.292v1.586a.574.574,0,0,0,.044.263A.276.276,0,0,0-3486.009-1854.264Z" transform="translate(3491.434 1856.207)" fill="#c0a660"/>
        <path id="Path_1050" data-name="Path 1050" d="M-3481.78-1855.178a1.024,1.024,0,0,1-.14.521,1.165,1.165,0,0,1-.4.406,1.709,1.709,0,0,1-.668.241l.13-.172a1.09,1.09,0,0,0,.5-.273.933.933,0,0,0,.309-.69.664.664,0,0,0-.127-.415.387.387,0,0,0-.319-.165.371.371,0,0,0-.279.117.406.406,0,0,0-.113.293.458.458,0,0,0,.113.32.369.369,0,0,0,.289.124.567.567,0,0,0,.282-.08l-.181.229a.636.636,0,0,1-.214.039.522.522,0,0,1-.395-.167.576.576,0,0,1-.159-.415.632.632,0,0,1,.2-.47.671.671,0,0,1,.485-.192.651.651,0,0,1,.5.212A.759.759,0,0,1-3481.78-1855.178Z" transform="translate(3488.954 1856.01)" fill="#c0a660"/>
        <path id="Path_1051" data-name="Path 1051" d="M-3476.457-1854.388l-.146.327h-1.216l.686-1.034a.733.733,0,0,0,.15-.347.239.239,0,0,0-.08-.186.306.306,0,0,0-.21-.072.879.879,0,0,0-.462.175l.158-.339a1.366,1.366,0,0,1,.343-.052.64.64,0,0,1,.4.118.358.358,0,0,1,.158.3.759.759,0,0,1-.115.338q-.081.143-.142.234l-.443.635a2.767,2.767,0,0,0,.375.031A1.2,1.2,0,0,0-3476.457-1854.388Z" transform="translate(3485.235 1856.004)" fill="#c0a660"/>
        <path id="Path_1052" data-name="Path 1052" d="M-3471.6-1855.77l-.371.891a4.679,4.679,0,0,0-.3.813.14.14,0,0,0,.072.107h-.44l.666-1.582a1.987,1.987,0,0,0-.387-.039.842.842,0,0,0-.5.141l.121-.331Z" transform="translate(3481.782 1855.902)" fill="#c0a660"/>
      </g>
    </g>
    <g id="Group_48" data-name="Group 48" transform="translate(0 5.37)">
      <g id="Group_17" data-name="Group 17" transform="translate(624 50.63)">
        <path id="Path_992" data-name="Path 992" d="M-3801.015-1783.615h-4.634v-2.27a8,8,0,0,1-6.5,2.8,8.629,8.629,0,0,1-4.509-1.151,6.052,6.052,0,0,1-2.831-3.577,15.226,15.226,0,0,1-.311-3.67v-9.548a13.824,13.824,0,0,0-.124-2.364,2.586,2.586,0,0,0-1.337-1.835h6.22a2.675,2.675,0,0,0-1.337,1.835,14.048,14.048,0,0,0-.124,2.364v9.548a6.426,6.426,0,0,0,1.15,4.2,5.17,5.17,0,0,0,4.168,1.8,5.5,5.5,0,0,0,4.789-2.333,4.542,4.542,0,0,0,.622-2.55v-10.667a14.158,14.158,0,0,0-.124-2.364,2.677,2.677,0,0,0-1.337-1.835h6.219a2.673,2.673,0,0,0-1.337,1.835,14.085,14.085,0,0,0-.125,2.364v13.218a14.069,14.069,0,0,0,.125,2.363A2.668,2.668,0,0,0-3801.015-1783.615Z" transform="translate(3821.261 1805.759)" fill="#002d62"/>
        <path id="Path_993" data-name="Path 993" d="M-3699.378-1805.23a3.6,3.6,0,0,0-1.4,1.446,6.283,6.283,0,0,0-.342,2.411v18.816a9.765,9.765,0,0,1-4.51-3.452l-11.507-14.587v13.125a6.164,6.164,0,0,0,.357,2.411,3.537,3.537,0,0,0,1.354,1.446h-5.847a3.6,3.6,0,0,0,1.4-1.446,6.264,6.264,0,0,0,.342-2.411v-13.9a6.164,6.164,0,0,0-.358-2.411,3.539,3.539,0,0,0-1.352-1.446h4.789a9.331,9.331,0,0,0,.777,1.213l12.161,15.488v-12.845a6.049,6.049,0,0,0-.357-2.395,3.728,3.728,0,0,0-1.384-1.462Z" transform="translate(3742.919 1805.759)" fill="#002d62"/>
        <path id="Path_994" data-name="Path 994" d="M-3598.486-1783.615h-6.812q1.182-.715,1.182-1.306a7.64,7.64,0,0,0-.56-1.836l-1.929-5.007h-8.3l-1.866,5.007a4.952,4.952,0,0,0-.373,1.68q0,.841,1.181,1.462H-3622a5.592,5.592,0,0,0,1.648-1.493,17.818,17.818,0,0,0,1.4-2.923l5.785-14.431a4.3,4.3,0,0,0,.373-1.493q0-.777-1-1.275h5.225l6.905,17.2a13.891,13.891,0,0,0,1.429,2.862A5.794,5.794,0,0,0-3598.486-1783.615Zm-8.958-10.264-3.328-8.584-3.358,8.584Z" transform="translate(3665.137 1805.759)" fill="#002d62"/>
        <path id="Path_995" data-name="Path 995" d="M-3492.567-1794.624a10.921,10.921,0,0,1-1.712,5.939,10.2,10.2,0,0,1-4.572,3.984q-2.427,1.086-8.677,1.086h-5.287a4.16,4.16,0,0,0,1.182-1.462,10.48,10.48,0,0,0,.28-2.892v-13.062a13.833,13.833,0,0,0-.125-2.364,2.588,2.588,0,0,0-1.337-1.835h8.055a12.943,12.943,0,0,1,8.521,2.7A9.782,9.782,0,0,1-3492.567-1794.624Zm-3.608.34a8.821,8.821,0,0,0-2.286-6.244,8.532,8.532,0,0,0-6.578-2.464,16.069,16.069,0,0,0-3.017.34v16.362a13.07,13.07,0,0,0,2.426.216,10.453,10.453,0,0,0,6.251-1.58A7.753,7.753,0,0,0-3496.176-1794.283Z" transform="translate(3579.59 1805.759)" fill="#002d62"/>
        <path id="Path_996" data-name="Path 996" d="M-3398.049-1788.581l-1.524,4.292h-13.685a2.584,2.584,0,0,0,1.337-1.835,14.432,14.432,0,0,0,.125-2.394v-13.187a14.171,14.171,0,0,0-.125-2.364,2.585,2.585,0,0,0-1.337-1.835h10.916a3.745,3.745,0,0,0,1.244-.186v3.826a4.142,4.142,0,0,0-1.835-1.089,8.03,8.03,0,0,0-2.177-.219,21.7,21.7,0,0,0-3.39.219v6.126h4.386a2.614,2.614,0,0,0,1.119-.218v3.484a3.141,3.141,0,0,0-2.582-.871h-2.923v7.807a24.943,24.943,0,0,0,4.043.342A10.272,10.272,0,0,0-3398.049-1788.581Z" transform="translate(3501.585 1806.433)" fill="#002d62"/>
        <path id="Path_997" data-name="Path 997" d="M-3323.962-1789.789l-1.648,3.825a13.539,13.539,0,0,1-5.1.964,12.92,12.92,0,0,1-9.035-3.094,10.544,10.544,0,0,1-3.4-8.2,10.94,10.94,0,0,1,3.3-8.149,11.413,11.413,0,0,1,8.335-3.234,25.663,25.663,0,0,1,5.909.839v3.763a12.047,12.047,0,0,0-5.972-1.8,7.526,7.526,0,0,0-5.644,2.254,7.931,7.931,0,0,0-2.193,5.769,9.442,9.442,0,0,0,2.395,6.532,7.588,7.588,0,0,0,5.878,2.675A15.708,15.708,0,0,0-3323.962-1789.789Z" transform="translate(3446.656 1807.672)" fill="#002d62"/>
        <path id="Path_998" data-name="Path 998" d="M-3235.022-1783.615h-6.811q1.182-.715,1.182-1.306a7.645,7.645,0,0,0-.56-1.836l-1.928-5.007h-8.3l-1.866,5.007a4.98,4.98,0,0,0-.374,1.68q0,.841,1.183,1.462h-6.034a5.594,5.594,0,0,0,1.648-1.493,17.776,17.776,0,0,0,1.4-2.923l5.785-14.431a4.3,4.3,0,0,0,.373-1.493q0-.777-.995-1.275h5.225l6.9,17.2a13.87,13.87,0,0,0,1.431,2.862A5.791,5.791,0,0,0-3235.022-1783.615Zm-8.957-10.264-3.328-8.584-3.359,8.584Z" transform="translate(3380.357 1805.759)" fill="#002d62"/>
      </g>
      <g id="Group_18" data-name="Group 18" transform="translate(624.007 75.97)">
        <path id="Path_999" data-name="Path 999" d="M-3817.269-1680.212h-.906v-.444a1.563,1.563,0,0,1-1.271.547,1.691,1.691,0,0,1-.882-.225,1.183,1.183,0,0,1-.553-.7,2.978,2.978,0,0,1-.061-.718v-1.866a2.741,2.741,0,0,0-.024-.462.5.5,0,0,0-.261-.358h1.217a.52.52,0,0,0-.262.358,2.725,2.725,0,0,0-.024.462v1.866a1.258,1.258,0,0,0,.226.822,1.008,1.008,0,0,0,.814.352,1.075,1.075,0,0,0,.937-.456.89.89,0,0,0,.122-.5v-2.086a2.752,2.752,0,0,0-.024-.462.519.519,0,0,0-.261-.358h1.216a.519.519,0,0,0-.261.358,2.682,2.682,0,0,0-.025.462v2.584a2.676,2.676,0,0,0,.025.462A.523.523,0,0,0-3817.269-1680.212Z" transform="translate(3821.228 1685.776)" fill="#c0a660"/>
        <path id="Path_1000" data-name="Path 1000" d="M-3795.985-1684.437a.707.707,0,0,0-.274.282,1.235,1.235,0,0,0-.066.471V-1680a1.917,1.917,0,0,1-.882-.675l-2.25-2.852v2.567a1.191,1.191,0,0,0,.071.471.694.694,0,0,0,.264.282h-1.143a.7.7,0,0,0,.273-.282,1.218,1.218,0,0,0,.067-.471v-2.719a1.2,1.2,0,0,0-.07-.471.676.676,0,0,0-.264-.282h.937a1.807,1.807,0,0,0,.152.237l2.378,3.028v-2.511a1.166,1.166,0,0,0-.07-.468.721.721,0,0,0-.27-.285Z" transform="translate(3804.805 1685.776)" fill="#c0a660"/>
        <path id="Path_1001" data-name="Path 1001" d="M-3776.685-1680.212h-1.216a.509.509,0,0,0,.261-.359,2.722,2.722,0,0,0,.024-.462v-2.584a2.723,2.723,0,0,0-.024-.462.506.506,0,0,0-.261-.358h1.216a.505.505,0,0,0-.262.358,2.807,2.807,0,0,0-.024.462v2.584a2.805,2.805,0,0,0,.024.462A.509.509,0,0,0-3776.685-1680.212Z" transform="translate(3787.281 1685.776)" fill="#c0a660"/>
        <path id="Path_1002" data-name="Path 1002" d="M-3766.967-1684.437l-1.715,4.414a2.872,2.872,0,0,1-.566-.438,2.111,2.111,0,0,1-.261-.541l-.87-2.347q-.237-.644-.307-.784a1.092,1.092,0,0,0-.253-.3h.938a.382.382,0,0,0-.006.072,2.021,2.021,0,0,0,.145.523l1.053,2.87.907-2.377a2.458,2.458,0,0,0,.195-.724.359.359,0,0,0-.231-.364Z" transform="translate(3781.826 1685.776)" fill="#c0a660"/>
        <path id="Path_1003" data-name="Path 1003" d="M-3747.987-1681.184l-.3.839h-2.676a.5.5,0,0,0,.262-.359,2.767,2.767,0,0,0,.024-.468v-2.578a2.716,2.716,0,0,0-.024-.462.5.5,0,0,0-.262-.358h2.136a.743.743,0,0,0,.242-.037v.747a.809.809,0,0,0-.358-.213,1.572,1.572,0,0,0-.425-.043,4.239,4.239,0,0,0-.663.043v1.2h.857a.518.518,0,0,0,.219-.042v.68a.616.616,0,0,0-.5-.17h-.572v1.526a4.909,4.909,0,0,0,.791.067A2.01,2.01,0,0,0-3747.987-1681.184Z" transform="translate(3766.174 1685.909)" fill="#c0a660"/>
        <path id="Path_1004" data-name="Path 1004" d="M-3731.712-1680.212c-.316.024-.513.037-.59.037a.86.86,0,0,1-.472-.127,2.712,2.712,0,0,1-.52-.509,11.57,11.57,0,0,1-1.125-1.594q1.072-.182,1.071-.915a.663.663,0,0,0-.217-.512.8.8,0,0,0-.563-.2,2.583,2.583,0,0,0-.45.049v2.952a2.719,2.719,0,0,0,.025.46.5.5,0,0,0,.261.358h-1.216a.5.5,0,0,0,.261-.359,2.626,2.626,0,0,0,.025-.462v-2.584a2.627,2.627,0,0,0-.025-.462.5.5,0,0,0-.261-.358h1.5a1.567,1.567,0,0,1,.949.248.975.975,0,0,1,.426.819.96.96,0,0,1-.292.676,1.525,1.525,0,0,1-.749.421,15.845,15.845,0,0,0,1.147,1.412A3.257,3.257,0,0,0-3731.712-1680.212Z" transform="translate(3754.065 1685.776)" fill="#c0a660"/>
        <path id="Path_1005" data-name="Path 1005" d="M-3715.051-1681.821a1.182,1.182,0,0,1-.4.87,1.859,1.859,0,0,1-1.344.474,3.287,3.287,0,0,1-1.131-.2l-.195-.8a2.237,2.237,0,0,0,1.411.511,1.184,1.184,0,0,0,.684-.189.555.555,0,0,0,.277-.469.586.586,0,0,0-.213-.456,4.011,4.011,0,0,0-.824-.449,3.717,3.717,0,0,1-.885-.511.964.964,0,0,1-.335-.741.966.966,0,0,1,.436-.827,1.965,1.965,0,0,1,1.164-.31,3.631,3.631,0,0,1,.979.14v.73a1.407,1.407,0,0,0-1.016-.42,1.024,1.024,0,0,0-.611.167.511.511,0,0,0-.235.434.508.508,0,0,0,.186.4,3.672,3.672,0,0,0,.763.429,5.011,5.011,0,0,1,.936.517A.852.852,0,0,1-3715.051-1681.821Z" transform="translate(3740.438 1686.151)" fill="#c0a660"/>
        <path id="Path_1006" data-name="Path 1006" d="M-3700.212-1680.212h-1.217a.5.5,0,0,0,.261-.359,2.634,2.634,0,0,0,.025-.462v-2.584a2.635,2.635,0,0,0-.025-.462.5.5,0,0,0-.261-.358h1.217a.5.5,0,0,0-.262.358,2.653,2.653,0,0,0-.024.462v2.584a2.651,2.651,0,0,0,.024.462A.506.506,0,0,0-3700.212-1680.212Z" transform="translate(3727.364 1685.776)" fill="#c0a660"/>
        <path id="Path_1007" data-name="Path 1007" d="M-3688.927-1682.364a2.13,2.13,0,0,1-.335,1.161,2,2,0,0,1-.894.779,4.667,4.667,0,0,1-1.7.212h-1.034a.82.82,0,0,0,.231-.286,2.045,2.045,0,0,0,.055-.566v-2.553a2.635,2.635,0,0,0-.025-.462.5.5,0,0,0-.261-.358h1.575a2.534,2.534,0,0,1,1.667.527A1.915,1.915,0,0,1-3688.927-1682.364Zm-.706.066a1.726,1.726,0,0,0-.446-1.221,1.671,1.671,0,0,0-1.287-.482,3.162,3.162,0,0,0-.59.067v3.2a2.548,2.548,0,0,0,.474.042,2.046,2.046,0,0,0,1.223-.309A1.516,1.516,0,0,0-3689.632-1682.3Z" transform="translate(3720.671 1685.776)" fill="#c0a660"/>
        <path id="Path_1008" data-name="Path 1008" d="M-3670.11-1680.212h-1.332c.154-.094.23-.179.23-.256a1.481,1.481,0,0,0-.109-.358l-.377-.979h-1.623l-.366.979a.969.969,0,0,0-.073.328c0,.11.077.2.231.286h-1.18a1.092,1.092,0,0,0,.322-.292,3.359,3.359,0,0,0,.274-.571l1.132-2.822a.843.843,0,0,0,.073-.292c0-.1-.065-.184-.195-.249h1.021l1.351,3.362a2.7,2.7,0,0,0,.279.559A1.137,1.137,0,0,0-3670.11-1680.212Zm-1.751-2.006-.651-1.678-.657,1.678Z" transform="translate(3706.428 1685.776)" fill="#c0a660"/>
        <path id="Path_1009" data-name="Path 1009" d="M-3647.993-1682.364a2.141,2.141,0,0,1-.335,1.161,2,2,0,0,1-.893.779,4.676,4.676,0,0,1-1.7.212h-1.035a.81.81,0,0,0,.232-.286,2.067,2.067,0,0,0,.054-.566v-2.553a2.627,2.627,0,0,0-.024-.462.5.5,0,0,0-.262-.358h1.576a2.532,2.532,0,0,1,1.667.527A1.914,1.914,0,0,1-3647.993-1682.364Zm-.706.066a1.726,1.726,0,0,0-.446-1.221,1.671,1.671,0,0,0-1.287-.482,3.167,3.167,0,0,0-.591.067v3.2a2.558,2.558,0,0,0,.474.042,2.046,2.046,0,0,0,1.223-.309A1.517,1.517,0,0,0-3648.7-1682.3Z" transform="translate(3688.6 1685.776)" fill="#c0a660"/>
        <path id="Path_1010" data-name="Path 1010" d="M-3620.352-1680.212h-1.332c.154-.094.231-.179.231-.256a1.512,1.512,0,0,0-.109-.358l-.377-.979h-1.625l-.365.979a.976.976,0,0,0-.073.328c0,.11.076.2.231.286h-1.18a1.114,1.114,0,0,0,.322-.292,3.534,3.534,0,0,0,.273-.571l1.132-2.822a.845.845,0,0,0,.072-.292c0-.1-.065-.184-.194-.249h1.021l1.351,3.362a2.7,2.7,0,0,0,.28.559A1.145,1.145,0,0,0-3620.352-1680.212Zm-1.751-2.006-.651-1.678-.656,1.678Z" transform="translate(3667.441 1685.776)" fill="#c0a660"/>
        <path id="Path_1011" data-name="Path 1011" d="M-3598.232-1682.364a2.132,2.132,0,0,1-.335,1.161,2,2,0,0,1-.894.779,4.671,4.671,0,0,1-1.7.212h-1.034a.82.82,0,0,0,.231-.286,2.064,2.064,0,0,0,.055-.566v-2.553a2.723,2.723,0,0,0-.024-.462.505.505,0,0,0-.262-.358h1.575a2.532,2.532,0,0,1,1.667.527A1.914,1.914,0,0,1-3598.232-1682.364Zm-.706.066a1.724,1.724,0,0,0-.447-1.221,1.668,1.668,0,0,0-1.286-.482,3.158,3.158,0,0,0-.59.067v3.2a2.551,2.551,0,0,0,.474.042,2.043,2.043,0,0,0,1.223-.309A1.516,1.516,0,0,0-3598.938-1682.3Z" transform="translate(3649.61 1685.776)" fill="#c0a660"/>
        <path id="Path_1012" data-name="Path 1012" d="M-3579.875-1684.437l-1.715,4.414a2.857,2.857,0,0,1-.565-.438,2.124,2.124,0,0,1-.262-.541l-.87-2.347c-.158-.429-.261-.691-.307-.784a1.118,1.118,0,0,0-.253-.3h.937a.315.315,0,0,0-.006.072,1.984,1.984,0,0,0,.146.523l1.052,2.87.906-2.377a2.483,2.483,0,0,0,.2-.724.36.36,0,0,0-.231-.364Z" transform="translate(3635.237 1685.776)" fill="#c0a660"/>
        <path id="Path_1013" data-name="Path 1013" d="M-3560.9-1681.184l-.3.839h-2.677a.505.505,0,0,0,.262-.359,2.87,2.87,0,0,0,.024-.468v-2.578a2.817,2.817,0,0,0-.024-.462.5.5,0,0,0-.262-.358h2.135a.746.746,0,0,0,.244-.037v.747a.811.811,0,0,0-.359-.213,1.572,1.572,0,0,0-.426-.043,4.257,4.257,0,0,0-.664.043v1.2h.857a.515.515,0,0,0,.219-.042v.68a.616.616,0,0,0-.505-.17h-.572v1.526a4.917,4.917,0,0,0,.791.067A2.011,2.011,0,0,0-3560.9-1681.184Z" transform="translate(3619.586 1685.909)" fill="#c0a660"/>
        <path id="Path_1014" data-name="Path 1014" d="M-3544.358-1684.437a.7.7,0,0,0-.274.282,1.228,1.228,0,0,0-.067.471V-1680a1.916,1.916,0,0,1-.882-.675l-2.251-2.852v2.567a1.21,1.21,0,0,0,.07.471.69.69,0,0,0,.265.282h-1.144a.7.7,0,0,0,.273-.282,1.218,1.218,0,0,0,.067-.471v-2.719a1.21,1.21,0,0,0-.07-.471.681.681,0,0,0-.265-.282h.937a1.852,1.852,0,0,0,.152.237l2.379,3.028v-2.511a1.159,1.159,0,0,0-.071-.468.718.718,0,0,0-.27-.285Z" transform="translate(3607.652 1685.776)" fill="#c0a660"/>
        <path id="Path_1015" data-name="Path 1015" d="M-3524.578-1684.636l-.206.766a.405.405,0,0,0-.256-.213,1.36,1.36,0,0,0-.347-.031c-.032,0-.086,0-.161.01s-.171.008-.289.008h-.1v2.974a1.184,1.184,0,0,0,.067.464.738.738,0,0,0,.273.289h-1.272a.5.5,0,0,0,.262-.359,2.794,2.794,0,0,0,.024-.462v-2.906c-.125-.012-.3-.018-.517-.018a1.937,1.937,0,0,0-.437.036,1.132,1.132,0,0,0-.4.207l.237-.766a1.08,1.08,0,0,0,.329.043h2.415c.052,0,.135,0,.249-.013C-3524.686-1684.61-3524.643-1684.62-3524.578-1684.636Z" transform="translate(3591.429 1685.932)" fill="#c0a660"/>
        <path id="Path_1016" data-name="Path 1016" d="M-3509.946-1680.212h-1.217a.5.5,0,0,0,.262-.359,2.677,2.677,0,0,0,.024-.462v-2.584a2.679,2.679,0,0,0-.024-.462.5.5,0,0,0-.262-.358h1.217a.5.5,0,0,0-.262.358,2.67,2.67,0,0,0-.025.462v2.584a2.668,2.668,0,0,0,.025.462A.5.5,0,0,0-3509.946-1680.212Z" transform="translate(3578.288 1685.776)" fill="#c0a660"/>
        <path id="Path_1017" data-name="Path 1017" d="M-3499.949-1681.821a1.183,1.183,0,0,1-.4.87,1.858,1.858,0,0,1-1.344.474,3.3,3.3,0,0,1-1.132-.2l-.194-.8a2.24,2.24,0,0,0,1.411.511,1.186,1.186,0,0,0,.684-.189.553.553,0,0,0,.277-.469.589.589,0,0,0-.213-.456,4.016,4.016,0,0,0-.824-.449,3.738,3.738,0,0,1-.885-.511.961.961,0,0,1-.335-.741.967.967,0,0,1,.435-.827,1.97,1.97,0,0,1,1.166-.31,3.636,3.636,0,0,1,.979.14v.73a1.408,1.408,0,0,0-1.017-.42,1.026,1.026,0,0,0-.611.167.512.512,0,0,0-.234.434.507.507,0,0,0,.185.4,3.714,3.714,0,0,0,.764.429,5.045,5.045,0,0,1,.937.517A.855.855,0,0,1-3499.949-1681.821Z" transform="translate(3571.904 1686.151)" fill="#c0a660"/>
        <path id="Path_1018" data-name="Path 1018" d="M-3484.795-1684.636l-.208.766a.4.4,0,0,0-.254-.213,1.369,1.369,0,0,0-.347-.031c-.033,0-.086,0-.161.01s-.172.008-.289.008h-.1v2.974a1.2,1.2,0,0,0,.067.464.747.747,0,0,0,.274.289h-1.271a.512.512,0,0,0,.261-.359,2.8,2.8,0,0,0,.023-.462v-2.906c-.125-.012-.3-.018-.517-.018a1.939,1.939,0,0,0-.438.036,1.14,1.14,0,0,0-.4.207l.238-.766a1.073,1.073,0,0,0,.328.043h2.415c.052,0,.136,0,.249-.013C-3484.9-1684.61-3484.86-1684.62-3484.795-1684.636Z" transform="translate(3560.26 1685.932)" fill="#c0a660"/>
        <path id="Path_1019" data-name="Path 1019" d="M-3469.308-1680.212h-1.332c.154-.094.231-.179.231-.256a1.529,1.529,0,0,0-.11-.358l-.376-.979h-1.624l-.365.979a.97.97,0,0,0-.073.328c0,.11.077.2.231.286h-1.18a1.087,1.087,0,0,0,.322-.292,3.409,3.409,0,0,0,.274-.571l1.131-2.822a.845.845,0,0,0,.073-.292c0-.1-.066-.184-.2-.249h1.022l1.35,3.362a2.735,2.735,0,0,0,.28.559A1.131,1.131,0,0,0-3469.308-1680.212Zm-1.751-2.006-.652-1.678-.656,1.678Z" transform="translate(3549.097 1685.776)" fill="#c0a660"/>
        <path id="Path_1020" data-name="Path 1020" d="M-3439.855-1682.364a2.137,2.137,0,0,1-.335,1.161,2,2,0,0,1-.894.779,4.67,4.67,0,0,1-1.7.212h-1.034a.808.808,0,0,0,.23-.286,2.019,2.019,0,0,0,.055-.566v-2.553a2.732,2.732,0,0,0-.024-.462.5.5,0,0,0-.261-.358h1.575a2.534,2.534,0,0,1,1.666.527A1.915,1.915,0,0,1-3439.855-1682.364Zm-.705.066a1.725,1.725,0,0,0-.448-1.221,1.668,1.668,0,0,0-1.286-.482,3.152,3.152,0,0,0-.59.067v3.2a2.553,2.553,0,0,0,.474.042,2.042,2.042,0,0,0,1.222-.309A1.517,1.517,0,0,0-3440.561-1682.3Z" transform="translate(3525.52 1685.776)" fill="#c0a660"/>
        <path id="Path_1021" data-name="Path 1021" d="M-3419.966-1681.184l-.3.839h-2.676a.5.5,0,0,0,.261-.359,2.785,2.785,0,0,0,.024-.468v-2.578a2.734,2.734,0,0,0-.024-.462.5.5,0,0,0-.261-.358h2.135a.744.744,0,0,0,.243-.037v.747a.809.809,0,0,0-.359-.213,1.569,1.569,0,0,0-.426-.043,4.252,4.252,0,0,0-.663.043v1.2h.858a.514.514,0,0,0,.219-.042v.68a.616.616,0,0,0-.5-.17h-.572v1.526a4.915,4.915,0,0,0,.791.067A2.01,2.01,0,0,0-3419.966-1681.184Z" transform="translate(3509.164 1685.909)" fill="#c0a660"/>
        <path id="Path_1022" data-name="Path 1022" d="M-3396.738-1681.42l-.323.748a2.649,2.649,0,0,1-1,.188,2.526,2.526,0,0,1-1.767-.605,2.059,2.059,0,0,1-.665-1.6,2.142,2.142,0,0,1,.644-1.593,2.234,2.234,0,0,1,1.63-.632,4.986,4.986,0,0,1,1.156.165v.735a2.353,2.353,0,0,0-1.167-.352,1.474,1.474,0,0,0-1.1.44,1.551,1.551,0,0,0-.429,1.128,1.843,1.843,0,0,0,.468,1.276,1.482,1.482,0,0,0,1.149.523A3.078,3.078,0,0,0-3396.738-1681.42Z" transform="translate(3491.575 1686.151)" fill="#c0a660"/>
        <path id="Path_1023" data-name="Path 1023" d="M-3378.356-1681.184l-.3.839h-2.676a.506.506,0,0,0,.261-.359,2.822,2.822,0,0,0,.024-.468v-2.578a2.771,2.771,0,0,0-.024-.462.5.5,0,0,0-.261-.358h2.135a.74.74,0,0,0,.243-.037v.747a.81.81,0,0,0-.358-.213,1.573,1.573,0,0,0-.426-.043,4.244,4.244,0,0,0-.663.043v1.2h.858a.522.522,0,0,0,.22-.042v.68a.618.618,0,0,0-.506-.17h-.572v1.526a4.932,4.932,0,0,0,.791.067A2.013,2.013,0,0,0-3378.356-1681.184Z" transform="translate(3476.563 1685.909)" fill="#c0a660"/>
        <path id="Path_1024" data-name="Path 1024" d="M-3361.823-1684.437a.7.7,0,0,0-.273.282,1.209,1.209,0,0,0-.067.471V-1680a1.912,1.912,0,0,1-.882-.675l-2.25-2.852v2.567a1.2,1.2,0,0,0,.07.471.693.693,0,0,0,.264.282h-1.143a.709.709,0,0,0,.274-.282,1.243,1.243,0,0,0,.067-.471v-2.719a1.194,1.194,0,0,0-.071-.471.677.677,0,0,0-.264-.282h.937a1.749,1.749,0,0,0,.152.237l2.378,3.028v-2.511a1.174,1.174,0,0,0-.071-.468.719.719,0,0,0-.27-.285Z" transform="translate(3464.634 1685.776)" fill="#c0a660"/>
        <path id="Path_1025" data-name="Path 1025" d="M-3342.039-1684.636l-.207.766a.4.4,0,0,0-.255-.213,1.364,1.364,0,0,0-.346-.031c-.032,0-.086,0-.161.01s-.171.008-.289.008h-.1v2.974a1.215,1.215,0,0,0,.066.464.743.743,0,0,0,.274.289h-1.271a.508.508,0,0,0,.262-.359,2.73,2.73,0,0,0,.025-.462v-2.906q-.19-.019-.517-.018a1.943,1.943,0,0,0-.438.036,1.13,1.13,0,0,0-.4.207l.237-.766a1.076,1.076,0,0,0,.328.043h2.415c.053,0,.135,0,.249-.013C-3342.146-1684.61-3342.1-1684.62-3342.039-1684.636Z" transform="translate(3448.408 1685.932)" fill="#c0a660"/>
        <path id="Path_1026" data-name="Path 1026" d="M-3324.829-1680.212c-.316.024-.513.037-.59.037a.854.854,0,0,1-.471-.127,2.69,2.69,0,0,1-.52-.509,11.614,11.614,0,0,1-1.125-1.594q1.071-.182,1.071-.915a.661.661,0,0,0-.216-.512.8.8,0,0,0-.562-.2,2.576,2.576,0,0,0-.45.049v2.952a2.614,2.614,0,0,0,.025.46.5.5,0,0,0,.262.358h-1.217a.507.507,0,0,0,.262-.359,2.767,2.767,0,0,0,.024-.462v-2.584a2.769,2.769,0,0,0-.024-.462.5.5,0,0,0-.262-.358h1.5a1.566,1.566,0,0,1,.949.248.975.975,0,0,1,.426.819.957.957,0,0,1-.293.676,1.514,1.514,0,0,1-.747.421,15.865,15.865,0,0,0,1.146,1.412A3.275,3.275,0,0,0-3324.829-1680.212Z" transform="translate(3435.267 1685.776)" fill="#c0a660"/>
        <path id="Path_1027" data-name="Path 1027" d="M-3307.332-1682.751a2.1,2.1,0,0,1-.69,1.593,2.361,2.361,0,0,1-1.681.651,2.342,2.342,0,0,1-1.662-.638,2.052,2.052,0,0,1-.681-1.556,2.092,2.092,0,0,1,.7-1.6,2.45,2.45,0,0,1,1.73-.645,2.255,2.255,0,0,1,1.636.632,2.055,2.055,0,0,1,.477.711A2.21,2.21,0,0,1-3307.332-1682.751Zm-.73.106a1.93,1.93,0,0,0-.438-1.275,1.5,1.5,0,0,0-1.21-.558,1.548,1.548,0,0,0-1.159.464,1.662,1.662,0,0,0-.453,1.211,1.953,1.953,0,0,0,.517,1.359,1.441,1.441,0,0,0,1.126.479,1.549,1.549,0,0,0,1.167-.467A1.675,1.675,0,0,0-3308.062-1682.645Z" transform="translate(3422.277 1686.174)" fill="#c0a660"/>
        <path id="Path_1028" data-name="Path 1028" d="M-3276.936-1680.212h-1.332c.154-.094.231-.179.231-.256a1.468,1.468,0,0,0-.11-.358l-.377-.979h-1.625l-.364.979a.964.964,0,0,0-.073.328c0,.11.077.2.231.286h-1.18a1.1,1.1,0,0,0,.322-.292,3.52,3.52,0,0,0,.274-.571l1.132-2.822a.836.836,0,0,0,.073-.292c0-.1-.066-.184-.2-.249h1.022l1.351,3.362a2.718,2.718,0,0,0,.279.559A1.142,1.142,0,0,0-3276.936-1680.212Zm-1.752-2.006-.651-1.678-.657,1.678Z" transform="translate(3398.371 1685.776)" fill="#c0a660"/>
        <path id="Path_1029" data-name="Path 1029" d="M-3253.73-1680.212h-1.241a.473.473,0,0,0,.268-.487,3.189,3.189,0,0,0-.031-.359l-.34-2.748-1.442,3.678a2.16,2.16,0,0,1-.325-.319,1.853,1.853,0,0,1-.2-.386l-1.259-2.974-.377,2.833a2.962,2.962,0,0,0-.03.335.52.52,0,0,0,.255.426h-1.052a1.4,1.4,0,0,0,.347-.845l.371-2.7c.024-.178.036-.287.036-.328a.437.437,0,0,0-.225-.352h1.125a.6.6,0,0,0,.061.224l1.235,2.9,1.04-2.664a1.434,1.434,0,0,0,.121-.461h1.113a.4.4,0,0,0-.2.4,1.674,1.674,0,0,0,.019.231l.395,2.833a2.251,2.251,0,0,0,.107.48A.741.741,0,0,0-3253.73-1680.212Z" transform="translate(3381.114 1685.776)" fill="#c0a660"/>
        <path id="Path_1030" data-name="Path 1030" d="M-3227.622-1685.895l-.3.839h-2.677a.507.507,0,0,0,.262-.359,2.861,2.861,0,0,0,.024-.468v-2.578a2.807,2.807,0,0,0-.024-.462.5.5,0,0,0-.262-.358h2.135a.735.735,0,0,0,.242-.037v.748a.812.812,0,0,0-.358-.213,1.575,1.575,0,0,0-.425-.042,4.265,4.265,0,0,0-.664.042v1.192h.858a.6.6,0,0,0,.219-.036v.68a.605.605,0,0,0-.505-.176h-.572v1.532a4.9,4.9,0,0,0,.791.067A2.016,2.016,0,0,0-3227.622-1685.895Zm-.359-4.25-1.751.523,1.4-1Z" transform="translate(3358.461 1690.62)" fill="#c0a660"/>
        <path id="Path_1031" data-name="Path 1031" d="M-3211.35-1680.212c-.316.024-.513.037-.59.037a.855.855,0,0,1-.471-.127,2.7,2.7,0,0,1-.521-.509,11.527,11.527,0,0,1-1.125-1.594q1.07-.182,1.07-.915a.661.661,0,0,0-.216-.512.8.8,0,0,0-.562-.2,2.569,2.569,0,0,0-.45.049v2.952a2.614,2.614,0,0,0,.025.46.5.5,0,0,0,.261.358h-1.217a.506.506,0,0,0,.262-.359,2.731,2.731,0,0,0,.024-.462v-2.584a2.733,2.733,0,0,0-.024-.462.5.5,0,0,0-.262-.358h1.5a1.565,1.565,0,0,1,.949.248.975.975,0,0,1,.426.819.962.962,0,0,1-.292.676,1.518,1.518,0,0,1-.748.421,15.851,15.851,0,0,0,1.147,1.412A3.27,3.27,0,0,0-3211.35-1680.212Z" transform="translate(3346.355 1685.776)" fill="#c0a660"/>
        <path id="Path_1032" data-name="Path 1032" d="M-3196.142-1680.212h-1.216a.507.507,0,0,0,.261-.359,2.561,2.561,0,0,0,.025-.462v-2.584a2.562,2.562,0,0,0-.025-.462.5.5,0,0,0-.261-.358h1.216a.505.505,0,0,0-.262.358,2.741,2.741,0,0,0-.024.462v2.584a2.74,2.74,0,0,0,.024.462A.509.509,0,0,0-3196.142-1680.212Z" transform="translate(3332.418 1685.776)" fill="#c0a660"/>
        <path id="Path_1033" data-name="Path 1033" d="M-3185.4-1681.42l-.323.748a2.651,2.651,0,0,1-1,.188,2.525,2.525,0,0,1-1.766-.605,2.056,2.056,0,0,1-.666-1.6,2.14,2.14,0,0,1,.645-1.593,2.233,2.233,0,0,1,1.63-.632,4.989,4.989,0,0,1,1.155.165v.735a2.351,2.351,0,0,0-1.168-.352,1.474,1.474,0,0,0-1.1.44,1.553,1.553,0,0,0-.428,1.128,1.843,1.843,0,0,0,.468,1.276,1.482,1.482,0,0,0,1.15.523A3.078,3.078,0,0,0-3185.4-1681.42Z" transform="translate(3325.991 1686.151)" fill="#c0a660"/>
        <path id="Path_1034" data-name="Path 1034" d="M-3166.6-1680.212h-1.332c.154-.094.231-.179.231-.256a1.493,1.493,0,0,0-.109-.358l-.377-.979h-1.624l-.365.979a.97.97,0,0,0-.073.328c0,.11.076.2.231.286h-1.18a1.11,1.11,0,0,0,.323-.292,3.529,3.529,0,0,0,.273-.571l1.131-2.822a.834.834,0,0,0,.073-.292c0-.1-.065-.184-.194-.249h1.021l1.35,3.362a2.757,2.757,0,0,0,.281.559A1.114,1.114,0,0,0-3166.6-1680.212Zm-1.752-2.006-.65-1.678-.658,1.678Z" transform="translate(3311.925 1685.776)" fill="#c0a660"/>
      </g>
    </g>
  </g>
</svg>
