<!-- Generator: Adobe Illustrator 23.0.5, SVG Export Plug-In  -->
<svg version="1.1" xmlns="http://www.w3.org/2000/svg" xmlns:xlink="http://www.w3.org/1999/xlink" x="0px" y="0px"
	 width="136.06px" height="187.79px" viewBox="0 0 136.06 187.79" style="enable-background:new 0 0 136.06 187.79;"
	 xml:space="preserve">
<style type="text/css">
	.st0{fill-rule:evenodd;clip-rule:evenodd;fill:#EDCC85;}
	.st1{fill-rule:evenodd;clip-rule:evenodd;fill:#A38B55;}
	.st2{fill-rule:evenodd;clip-rule:evenodd;fill:#C0A660;}
	.st3{fill-rule:evenodd;clip-rule:evenodd;fill:#FFFFFF;}
	.st4{fill-rule:evenodd;clip-rule:evenodd;fill:#002D62;}
	.st5{fill:#C0A660;}
</style>
<defs>
</defs>
<g>
	<path class="st0" d="M67.94,187.79c-2.57,0-4.98-0.51-7.15-1.51c-20.52-9.48-35.45-20.67-47-35.2C4.36,139.23-0.14,126.08,0,110.88
		C0.18,92.7,0.22,74.09,0.12,54.05H0.06L0.03,41.29V19.78L67.78,0l68.16,19.84l-0.03,34.21h-0.03c0,2.87,0.01,5.72,0.02,8.52l0,1.63
		c0.01,3.46,0.02,6.91,0.02,10.35c0,3.43-0.03,6.9-0.05,10.28l-0.01,1.26c-0.06,8.34-0.13,16.97,0.14,25.29
		c0.47,14.6-4.01,27.62-13.7,39.82c-11.43,14.39-26.2,25.47-46.47,34.88C73.47,187.19,70.66,187.79,67.94,187.79z"/>
	<path class="st1" d="M67.94,186.13c-2.35,0-4.54-0.46-6.5-1.37c-20.28-9.38-35.03-20.41-46.42-34.74
		C5.84,138.48,1.45,125.69,1.6,110.9c0.19-18.68,0.22-37.84,0.11-58.52H1.66l-0.02-11.1V21.04L67.78,1.72l66.57,19.37l-0.02,31.29
		h-0.03c0,3.44,0.02,6.85,0.03,10.19v0.27c0.01,3.92,0.02,7.81,0.02,11.71c0,3.83-0.03,7.69-0.06,11.43
		c-0.06,8.41-0.13,17.08,0.14,25.46c0.46,14.18-3.91,26.84-13.33,38.71c-11.27,14.18-25.85,25.12-45.89,34.41
		C73.02,185.58,70.44,186.13,67.94,186.13z"/>
	<path class="st2" d="M67.94,184.6c-2.14,0-4.13-0.42-5.91-1.24c-20.06-9.28-34.64-20.18-45.88-34.31
		c-8.94-11.25-13.21-23.72-13.07-38.13C3.26,91.79,3.3,72.09,3.18,50.85H3.13l-0.02-9.57V22.2L67.78,3.32l65.09,18.94l-0.02,28.59
		h-0.03c0,3.96,0.01,7.89,0.03,11.74v0.25c0.01,3.9,0.03,7.8,0.03,11.71c0,3.82-0.03,7.68-0.06,11.42
		c-0.06,8.43-0.13,17.1,0.14,25.52c0.44,13.78-3.81,26.11-13,37.68c-11.11,14-25.52,24.8-45.35,34
		C72.61,184.09,70.24,184.6,67.94,184.6z"/>
	<path class="st3" d="M67.94,179.81c-1.5,0-2.86-0.28-4.04-0.83c-19.39-8.97-33.43-19.45-44.2-32.99
		c-8.22-10.34-12.15-21.8-12.02-35.03c0.2-20.54,0.23-41.82,0.07-64.9H7.72l-0.01-4.79V25.84L67.78,8.29l60.49,17.6l-0.02,20.17
		h-0.03c-0.01,5.54,0,11.12,0.02,16.55c0.01,3.98,0.03,7.96,0.03,11.94c0,3.8-0.03,7.66-0.06,11.38
		c-0.06,8.45-0.13,17.18,0.14,25.71c0.41,12.57-3.5,23.84-11.94,34.47c-10.64,13.41-24.52,23.79-43.68,32.67
		C71.31,179.44,69.61,179.81,67.94,179.81z"/>
	<path class="st1" d="M67.94,175.97c-0.97,0-1.85-0.17-2.55-0.49c-18.85-8.71-32.46-18.86-42.85-31.93
		c-7.64-9.61-11.29-20.26-11.17-32.54c0.21-21.69,0.23-44.2,0.05-68.78H11.4l-0.01-0.96V28.74l56.4-16.47l56.79,16.53l-0.01,13.43
		h-0.01c-0.04,6.8-0.02,13.71,0,20.39c0.01,3.98,0.03,7.95,0.03,11.93c0,3.79-0.03,7.63-0.06,11.35
		c-0.06,8.49-0.13,17.26,0.14,25.87c0.37,11.59-3.26,22.02-11.1,31.9c-10.27,12.93-23.73,22.98-42.34,31.61
		C70.29,175.72,69.09,175.97,67.94,175.97z"/>
	<path class="st4" d="M123.75,111.81c-0.4-12.41-0.09-24.83-0.09-37.25c0-11.09-0.1-22.19-0.02-33.28h0.01l0.01-11.74L67.79,13.27
		l-55.48,16.2v11.8h0.01c0.17,23.25,0.19,46.5-0.04,69.75c-0.12,12.21,3.59,22.65,10.96,31.92c11.5,14.46,26.27,24.16,42.52,31.67
		c1.41,0.65,3.63,0.49,5.1-0.19c16.05-7.44,30.65-17.05,42-31.34C120.06,134,124.14,123.89,123.75,111.81z"/>
	<g>
		<g>
			<path class="st3" d="M28.14,55.86c0.87,1.51,1.78,3.01,2.99,4.18c1.54,1.49,3.16,2.88,4.73,4.32c1.15,1.06,2.34,2.08,3.42,3.23
				c2.06,2.22,2.99,5.04,2.99,8.26c0,9.55-0.03,19.1,0.01,28.65c0.03,8.9,2.36,16.99,6.96,24.09c2.87,4.43,6.54,7.94,10.99,10.22
				c5.74,2.94,11.42,2.65,16.92-0.76c5.53-3.43,9.75-8.4,12.61-14.89c1.89-4.3,3.17-8.8,3.71-13.58c0.18-1.57,0.29-3.16,0.29-4.74
				c0.02-9.44,0.06-18.88-0.01-28.31c-0.03-4.29,1.36-7.67,4.27-10.27c1.23-1.11,2.49-2.17,3.75-3.23c2.35-1.98,4.52-4.17,6.09-7.17
				c0.02,0.21,0.04,0.33,0.04,0.44c0,15.24,0.04,30.49-0.03,45.73c-0.02,4.11-0.87,8.1-2.13,11.94c-1.77,5.36-4.4,10.09-7.88,14.19
				c-6.21,7.31-13.74,11.7-22.45,13.46c-1.37,0.27-2.76,0.4-4.14,0.6c-0.09,0.02-0.18,0.06-0.27,0.08c-1.99,0-3.98,0-5.96,0
				c-0.09-0.03-0.18-0.08-0.28-0.08c-2.63-0.22-5.21-0.69-7.75-1.49c-9.7-3.05-17.56-9.14-23.19-18.83
				c-2.98-5.13-4.79-10.79-5.45-16.92c-0.07-0.67-0.16-1.35-0.24-2.02C28.14,87.26,28.14,71.56,28.14,55.86z"/>
		</g>
		<g>
			<g>
				<g>
					<g>
						<path class="st5" d="M59.3,93.92c-16.63-21.15,13.04-50.04,8.6-69.25l3.77,7.89C75.94,43.88,52.62,78.64,59.3,93.92z"/>
						<path class="st5" d="M67.86,103.58C46.19,90,76.31,58.68,73.31,36.55l3.57,7.46C81.45,58.69,54.79,91.33,67.86,103.58z"/>
						<path class="st5" d="M78.42,47.22c1.83,4.38,0.33,9.85,0.33,9.85c0.17,4.88-11.26,27.48-11.62,36.39
							c-0.65,16.08,11.05,13.46,11.05,13.46c-17.26-6.08,2.69-27.69,4.38-46.99C82.99,55.04,77.14,44.14,78.42,47.22z"/>
					</g>
				</g>
			</g>
		</g>
	</g>
	<g>
		<path class="st5" d="M55.37,156.32l-0.4,1.19h-3.63c0.19-0.1,0.3-0.27,0.35-0.51c0.02-0.11,0.03-0.33,0.03-0.66v-3.64
			c0-0.33-0.01-0.54-0.03-0.65c-0.05-0.23-0.17-0.4-0.35-0.51h2.9c0.13,0,0.24-0.02,0.33-0.05v1.06c-0.15-0.16-0.32-0.26-0.49-0.3
			c-0.13-0.04-0.32-0.06-0.58-0.06c-0.37,0-0.67,0.02-0.9,0.06v1.7h1.17c0.12,0,0.22-0.02,0.3-0.06v0.96
			c-0.12-0.16-0.35-0.24-0.68-0.24h-0.78v2.16c0.37,0.06,0.73,0.09,1.08,0.09C54.36,156.84,54.93,156.67,55.37,156.32z"/>
		<path class="st5" d="M59.92,155.76c0,0.46-0.18,0.87-0.54,1.23c-0.45,0.45-1.06,0.67-1.83,0.67c-0.53,0-1.04-0.1-1.54-0.28
			l-0.26-1.13c0.59,0.48,1.23,0.72,1.92,0.72c0.37,0,0.68-0.09,0.93-0.27c0.25-0.18,0.38-0.4,0.38-0.66c0-0.25-0.09-0.47-0.29-0.65
			c-0.17-0.15-0.54-0.36-1.12-0.63c-0.58-0.28-0.98-0.52-1.2-0.72c-0.3-0.29-0.45-0.63-0.45-1.05c0-0.49,0.2-0.88,0.59-1.17
			c0.39-0.29,0.92-0.44,1.58-0.44c0.43,0,0.88,0.06,1.33,0.2v1.03c-0.39-0.4-0.85-0.6-1.38-0.6c-0.34,0-0.62,0.08-0.83,0.24
			c-0.21,0.16-0.32,0.36-0.32,0.62c0,0.22,0.08,0.41,0.25,0.56c0.17,0.15,0.52,0.35,1.04,0.61c0.62,0.3,1.04,0.54,1.27,0.73
			C59.77,155.03,59.92,155.36,59.92,155.76z"/>
		<path class="st5" d="M64.69,151.47l-0.28,1.08c-0.07-0.15-0.19-0.26-0.35-0.3c-0.09-0.03-0.25-0.04-0.47-0.04
			c-0.04,0-0.12,0-0.22,0.01c-0.1,0.01-0.23,0.01-0.39,0.01h-0.14v4.2c0,0.3,0.03,0.52,0.09,0.66c0.06,0.14,0.18,0.28,0.37,0.41
			h-1.72c0.19-0.1,0.31-0.27,0.36-0.51c0.02-0.11,0.03-0.33,0.03-0.65v-4.11c-0.17-0.02-0.4-0.03-0.7-0.03
			c-0.26,0-0.46,0.02-0.59,0.05c-0.17,0.05-0.35,0.14-0.54,0.29l0.32-1.08c0.12,0.04,0.26,0.06,0.45,0.06h3.28
			c0.07,0,0.19-0.01,0.34-0.02C64.54,151.51,64.6,151.5,64.69,151.47z"/>
		<path class="st5" d="M65.78,157.02c0,0.16-0.05,0.29-0.16,0.41c-0.1,0.1-0.23,0.16-0.38,0.16c-0.16,0-0.28-0.06-0.39-0.16
			c-0.11-0.11-0.16-0.25-0.16-0.41c0-0.16,0.05-0.29,0.16-0.4c0.11-0.11,0.24-0.16,0.39-0.16c0.15,0,0.27,0.06,0.37,0.17
			C65.73,156.74,65.78,156.87,65.78,157.02z"/>
		<path class="st5" d="M69.24,157.5h-1.82c0.24-0.15,0.39-0.31,0.46-0.5c0.04-0.13,0.07-0.35,0.07-0.68v-3.61h-1.03
			c0.37-0.14,0.73-0.37,1.08-0.66c0.35-0.3,0.62-0.62,0.81-0.96v5.23c0,0.41,0.05,0.7,0.15,0.87
			C69.03,157.32,69.12,157.43,69.24,157.5z"/>
		<path class="st5" d="M75.01,153.84c0,0.62-0.16,1.19-0.46,1.72c-0.31,0.54-0.75,0.98-1.31,1.34c-0.59,0.39-1.33,0.65-2.2,0.8
			l0.43-0.57c0.64-0.16,1.18-0.46,1.64-0.9c0.68-0.66,1.02-1.42,1.02-2.28c0-0.55-0.14-1-0.42-1.37c-0.28-0.36-0.63-0.55-1.05-0.55
			c-0.37,0-0.68,0.13-0.92,0.39c-0.25,0.26-0.37,0.58-0.37,0.97c0,0.43,0.12,0.78,0.37,1.06c0.24,0.27,0.56,0.41,0.95,0.41
			c0.31,0,0.62-0.09,0.93-0.27l-0.6,0.76c-0.24,0.08-0.47,0.13-0.71,0.13c-0.52,0-0.95-0.18-1.3-0.55
			c-0.35-0.37-0.53-0.82-0.53-1.37c0-0.61,0.21-1.13,0.65-1.55c0.44-0.42,0.97-0.63,1.6-0.63c0.66,0,1.21,0.23,1.64,0.7
			C74.79,152.54,75.01,153.13,75.01,153.84z"/>
		<path class="st5" d="M80.3,156.42l-0.48,1.08H75.8l2.26-3.41c0.33-0.5,0.5-0.88,0.5-1.14c0-0.25-0.09-0.46-0.26-0.61
			c-0.18-0.16-0.41-0.24-0.69-0.24c-0.43,0-0.94,0.19-1.52,0.58l0.52-1.12c0.43-0.12,0.81-0.17,1.13-0.17
			c0.53,0,0.97,0.13,1.31,0.39c0.35,0.26,0.52,0.59,0.52,0.98c0,0.29-0.13,0.66-0.38,1.12c-0.18,0.31-0.34,0.57-0.47,0.77
			l-1.46,2.09c0.49,0.07,0.9,0.1,1.24,0.1C79.15,156.84,79.75,156.7,80.3,156.42z"/>
		<path class="st5" d="M84.92,151.53l-1.22,2.94c-0.66,1.57-0.98,2.47-0.98,2.68c0,0.12,0.08,0.24,0.24,0.35H81.5l2.2-5.22
			c-0.42-0.08-0.85-0.13-1.28-0.13c-0.66,0-1.21,0.15-1.66,0.47l0.4-1.09H84.92z"/>
	</g>
</g>
</svg>
